<?xml version="1.0" encoding="UTF-8"?>
<svg version="1.1" xmlns="http://www.w3.org/2000/svg" width="301" height="335">
<path d="M0 0 C10.37134503 8.62459218 16.27238588 19.67988779 17.625 33.1875 C19.49449754 59.90693407 11.35557617 87.41699176 -0.375 111.1875 C-0.77315918 112.00154297 -1.17131836 112.81558594 -1.58154297 113.65429688 C-11.37221963 133.48640093 -23.0926737 151.9621008 -36.85644531 169.26757812 C-38.32764257 171.12762559 -39.77294665 173.00483435 -41.2109375 174.890625 C-47.06158151 182.52841645 -53.31030055 189.64295921 -59.91943359 196.63037109 C-61.31862577 198.12719224 -62.6892246 199.64472366 -64.05078125 201.17578125 C-85.87524169 225.58684441 -113.09816148 248.37143002 -142.375 263.1875 C-143.04917969 263.5292627 -143.72335938 263.87102539 -144.41796875 264.22314453 C-165.41220131 274.77063964 -189.68427237 285.20180792 -213.48828125 278.0234375 C-221.45336529 275.37056629 -228.28906237 272.10963392 -234.375 266.1875 C-235.00792969 265.58164062 -235.64085937 264.97578125 -236.29296875 264.3515625 C-247.16380305 252.99397442 -248.99520983 238.57854461 -248.6796875 223.55859375 C-247.29025822 191.67635899 -231.23402748 145.97640777 -208.375 123.1875 C-205.48046875 122.3828125 -205.48046875 122.3828125 -202.5625 122.3125 C-201.58667969 122.27382812 -200.61085937 122.23515625 -199.60546875 122.1953125 C-198.86941406 122.19273437 -198.13335937 122.19015625 -197.375 122.1875 C-197.95894531 123.06535156 -197.95894531 123.06535156 -198.5546875 123.9609375 C-214.60572911 148.59225942 -227.363985 175.03596152 -222.08984375 205.1640625 C-220.18802236 213.20783165 -216.42625017 218.71680366 -209.375 223.1875 C-197.53851852 228.83105446 -182.13106128 229.14200171 -169.609375 225.40625 C-155.16844579 219.96474044 -142.52570009 212.67112296 -130.375 203.1875 C-129.79508301 202.73600586 -129.21516602 202.28451172 -128.61767578 201.81933594 C-120.41021911 195.321268 -112.98773358 187.98989221 -105.5625 180.625 C-104.69077148 179.76269775 -103.81904297 178.90039551 -102.92089844 178.01196289 C-97.735488 172.80039841 -92.95066216 167.40512265 -88.37011719 161.65405273 C-86.46429022 159.29788903 -84.48316266 157.0474701 -82.4375 154.8125 C-77.40811277 149.20013861 -72.89532909 143.20910626 -68.375 137.1875 C-67.55757324 136.10686279 -67.55757324 136.10686279 -66.72363281 135.00439453 C-48.93358601 111.45172497 -28.74390845 83.92626115 -32.6953125 52.65234375 C-34.1254894 44.24030324 -36.27355277 35.7972427 -43.30859375 30.43359375 C-54.94889252 23.41420754 -69.41693038 22.06781187 -82.5859375 24.98828125 C-106.03448816 31.29934744 -127.25467712 47.4580994 -144.703125 63.82421875 C-146.375 65.1875 -146.375 65.1875 -148.375 65.1875 C-149.67220392 61.29588823 -150.11648785 57.22331242 -149.375 53.1875 C-147.41653977 50.81026934 -145.89303111 49.31925776 -143.5 47.5 C-142.87577148 46.99799072 -142.25154297 46.49598145 -141.60839844 45.97875977 C-139.5541841 44.34843492 -137.47036976 42.76450634 -135.375 41.1875 C-134.66891602 40.64899414 -133.96283203 40.11048828 -133.23535156 39.55566406 C-101.7669356 15.69530898 -39.6847211 -27.59032991 0 0 Z " fill="#95C93E" transform="translate(266.375,31.8125)"/>
<path d="M0 0 C7.14224774 7.79154299 6.65545331 19.00510432 6.24169922 28.92285156 C4.42530583 52.51121916 -8.50348007 74.18817827 -22.9375 92.25 C-23.60910156 93.11367187 -24.28070313 93.97734375 -24.97265625 94.8671875 C-33.9838984 106.21966827 -43.80405048 117.27869603 -55.27734375 126.18359375 C-58.16605616 128.42754215 -60.91642578 130.80016975 -63.6875 133.1875 C-83.42214075 149.59064856 -105.63344005 162.04477445 -131.9375 160.25 C-136.6501651 159.4635237 -139.78956435 158.30730915 -143.3125 155.0625 C-149.33147251 144.64504758 -149.62071368 132.79080035 -147.19921875 121.16015625 C-144.21150864 110.45872185 -138.8422757 100.99904453 -133.22412109 91.47167969 C-132.09837415 89.52779027 -131.04530441 87.56801836 -130.01953125 85.5703125 C-126.25514341 78.68532762 -126.25514341 78.68532762 -122.2890625 77.375 C-119.76576628 77.09227773 -117.46311296 77.0314862 -114.9375 77.25 C-116.94058026 82.39358801 -119.20452677 87.41813312 -121.45898438 92.45507812 C-121.76255859 93.14150391 -122.06613281 93.82792969 -122.37890625 94.53515625 C-122.65420166 95.15269775 -122.92949707 95.77023926 -123.21313477 96.40649414 C-124.95684202 100.84422028 -125.13085115 104.92427627 -125.1875 109.6875 C-125.21328125 110.98558594 -125.2390625 112.28367187 -125.265625 113.62109375 C-124.91940453 117.45012724 -124.31201362 119.26691538 -121.9375 122.25 C-117.32530905 125.46681678 -112.03690172 125.65954704 -106.6328125 124.8828125 C-79.27017835 118.45854187 -57.25646375 94.57996806 -42.6875 71.8125 C-36.06947264 60.67974547 -28.91587319 47.14731762 -31.5 33.75 C-33.08883747 29.88152615 -34.69332493 27.8611653 -37.9375 25.25 C-46.20007255 22.49580915 -54.14804084 25.05106089 -61.9375 28.25 C-69.26194458 32.02558114 -76.10633753 36.6611275 -82.9375 41.25 C-83.30302803 39.83622218 -83.65445495 38.41879424 -84 37 C-84.19722656 36.21109375 -84.39445312 35.4221875 -84.59765625 34.609375 C-84.97536233 31.98713971 -84.99928984 30.67763768 -83.9375 28.25 C-80.55008079 24.92613462 -76.69430755 22.14451301 -72.9375 19.25 C-72.00164062 18.50105469 -71.06578125 17.75210938 -70.1015625 16.98046875 C-51.24277234 2.22927809 -23.47515296 -13.98519751 0 0 Z " fill="#818385" transform="translate(203.9375,73.75)"/>
<path d="M0 0 C0.33 0 0.66 0 1 0 C2.57069427 10.30889116 4.13579433 20.61861473 5.69381714 30.92942905 C6.41749309 35.71745171 7.14307111 40.50516975 7.87304688 45.29223633 C8.57783173 49.91457978 9.27755365 54.53766415 9.97381592 59.16129875 C10.2399388 60.92254728 10.50786509 62.68352431 10.77764893 64.44421577 C11.15606621 66.91596683 11.52797959 69.38861752 11.8984375 71.86157227 C12.01064636 72.58446442 12.12285522 73.30735657 12.23846436 74.05215454 C12.88182032 78.40250757 13.18909368 82.60355008 13 87 C11.00222601 88.99777399 7.28568749 88.81536129 4.54614258 89.21508789 C3.37532135 89.3908712 3.37532135 89.3908712 2.18084717 89.57020569 C-0.4139813 89.95858003 -3.00967356 90.34080065 -5.60546875 90.72265625 C-7.4057413 90.99003086 -9.20597788 91.25764774 -11.00617981 91.52549744 C-14.78798291 92.08719068 -18.57022115 92.64583397 -22.3527832 93.20239258 C-27.19465614 93.91507685 -32.03536033 94.63536856 -36.87575817 95.35799503 C-40.59768274 95.91275388 -44.32021147 96.46336814 -48.04293251 97.01275444 C-49.82725402 97.27659929 -51.61138416 97.54174183 -53.39531517 97.80821419 C-55.8959998 98.18112692 -58.39744756 98.54842943 -60.89916992 98.91430664 C-62.0005706 99.08026337 -62.0005706 99.08026337 -63.1242218 99.24957275 C-67.11753916 99.82694483 -70.9660524 100.10976745 -75 100 C-72.16405006 94.4514023 -68.58280131 89.95928791 -64.59765625 85.18359375 C-61.76215181 81.74920656 -59.09577463 78.19739016 -56.4375 74.625 C-51.66691308 68.21743177 -46.84891554 61.84852689 -42 55.5 C-36.83138422 48.72883986 -31.69100976 41.93840474 -26.59130859 35.11523438 C-21.63765926 28.4969577 -16.62279248 21.92554257 -11.60546875 15.35546875 C-10.96480469 14.51628906 -10.32414062 13.67710938 -9.6640625 12.8125 C-9.04821289 12.00683594 -8.43236328 11.20117188 -7.79785156 10.37109375 C-5.54762569 7.40338684 -3.33894294 4.40583058 -1.14208984 1.3984375 C-0.7652002 0.93695313 -0.38831055 0.47546875 0 0 Z " fill="#AED137" transform="translate(97,47)"/>
<path d="M0 0 C2.2795488 2.24136541 3.70476537 3.93919144 4.56640625 7.03515625 C4.53800821 21.77373648 -5.60696576 34.71075597 -15.4375 44.875 C-24.88751039 53.93016316 -37.34360109 63.49674912 -51 64 C-54.48243068 63.31767532 -57.08694669 62.07184519 -59.4375 59.3125 C-61.25549256 51.8385306 -59.65580695 44.70231274 -56 38 C-53.21686397 36.30871256 -50.68217336 35.62600479 -47.48046875 35.1484375 C-46.19366211 34.95507812 -46.19366211 34.95507812 -44.88085938 34.7578125 C-43.99205078 34.63148438 -43.10324219 34.50515625 -42.1875 34.375 C-41.31029297 34.2409375 -40.43308594 34.106875 -39.52929688 33.96875 C-34.63008545 33.250541 -29.95023596 32.85142539 -25 33 C-25.09611572 32.39003174 -25.19223145 31.78006348 -25.29125977 31.15161133 C-25.72392452 28.37321196 -26.1433252 25.59296519 -26.5625 22.8125 C-26.78969727 21.37293945 -26.78969727 21.37293945 -27.02148438 19.90429688 C-27.16005859 18.97294922 -27.29863281 18.04160156 -27.44140625 17.08203125 C-27.63778687 15.80162964 -27.63778687 15.80162964 -27.83813477 14.49536133 C-28.01646532 11.74616584 -27.80355459 9.63559216 -27 7 C-19.42692728 1.34208296 -9.45283493 -2.53152844 0 0 Z " fill="#939598" transform="translate(150,113)"/>
<path d="" fill="#9DA3AB" transform="translate(0,0)"/>
</svg>
